<svg width="16" height="16" viewBox="0 0 16 16" fill="none" xmlns="http://www.w3.org/2000/svg">
<path d="M12.3697 5.29971C12.4414 5.23056 12.4985 5.14783 12.5379 5.05634C12.5772 4.96486 12.598 4.86645 12.5989 4.76687C12.5998 4.66728 12.5809 4.56852 12.5432 4.47633C12.5055 4.38414 12.4499 4.30037 12.3795 4.22992C12.3091 4.15947 12.2254 4.10374 12.1333 4.06598C12.0411 4.02823 11.9423 4.00921 11.8428 4.01003C11.7432 4.01084 11.6448 4.03149 11.5532 4.07075C11.4617 4.11001 11.3789 4.16711 11.3097 4.23871L8.30371 7.24371L5.29871 4.23871C5.23005 4.16502 5.14725 4.10592 5.05525 4.06493C4.96325 4.02394 4.86393 4.00189 4.76323 4.00012C4.66253 3.99834 4.5625 4.01686 4.46911 4.05459C4.37572 4.09231 4.29089 4.14845 4.21967 4.21967C4.14845 4.29089 4.09231 4.37572 4.05459 4.46911C4.01686 4.5625 3.99834 4.66253 4.00012 4.76323C4.00189 4.86393 4.02394 4.96325 4.06493 5.05525C4.10592 5.14725 4.16502 5.23005 4.23871 5.29871L7.24171 8.30471L4.23671 11.3097C4.10423 11.4519 4.03211 11.6399 4.03553 11.8342C4.03896 12.0285 4.11767 12.2139 4.25509 12.3513C4.3925 12.4887 4.57788 12.5675 4.77219 12.5709C4.96649 12.5743 5.15453 12.5022 5.29671 12.3697L8.30371 9.36471L11.3087 12.3707C11.4509 12.5032 11.6389 12.5753 11.8332 12.5719C12.0275 12.5685 12.2129 12.4897 12.3503 12.3523C12.4877 12.2149 12.5665 12.0295 12.5699 11.8352C12.5733 11.6409 12.5012 11.4529 12.3687 11.3107L9.36571 8.30471L12.3697 5.29971Z" fill="#808080"/>
</svg>
