<svg width="16" height="16" viewBox="0 0 16 16" fill="none" xmlns="http://www.w3.org/2000/svg">
<path d="M6.00002 6.66659L8.17202 8.29592C8.30658 8.39684 8.47431 8.44316 8.64159 8.4256C8.80888 8.40805 8.96334 8.32791 9.07402 8.20125L13.3333 3.33325" stroke="#808080" stroke-width="1.32333" stroke-linecap="round"/>
<path d="M14 7.99989C14 9.25358 13.6073 10.4758 12.8771 11.4948C12.1469 12.5139 11.1158 13.2786 9.92861 13.6816C8.74146 14.0846 7.4579 14.1056 6.2582 13.7416C5.05851 13.3777 4.00295 12.6471 3.23978 11.6524C2.47661 10.6578 2.04418 9.4491 2.00321 8.19609C1.96223 6.94307 2.31479 5.7087 3.01135 4.66633C3.70791 3.62397 4.71349 2.82598 5.88684 2.38444C7.0602 1.9429 8.34239 1.87999 9.55333 2.20456" stroke="#808080" stroke-width="1.32333" stroke-linecap="round"/>
</svg>
