<svg width="16" height="16" viewBox="0 0 16 16" fill="none" xmlns="http://www.w3.org/2000/svg">
<path d="M15.3333 7.99994L13.7067 6.14661L13.9333 3.69328L11.5267 3.14661L10.2667 1.02661L8 1.99994L5.73333 1.02661L4.47333 3.14661L2.06666 3.68661L2.29333 6.13995L0.666664 7.99994L2.29333 9.85328L2.06666 12.3133L4.47333 12.8599L5.73333 14.9799L8 13.9999L10.2667 14.9733L11.5267 12.8533L13.9333 12.3066L13.7067 9.85328L15.3333 7.99994ZM12.3267 9.40661L12.5 11.2666L10.6733 11.6799L9.72 13.2866L8 12.5466L6.28 13.2866L5.32666 11.6799L3.5 11.2666L3.67333 9.39995L2.44 7.99994L3.67333 6.58661L3.5 4.73328L5.32666 4.32661L6.28 2.71994L8 3.45328L9.72 2.71328L10.6733 4.31994L12.5 4.73328L12.3267 6.59328L13.56 7.99994L12.3267 9.40661ZM7.33333 9.99994H8.66666V11.3333H7.33333V9.99994ZM7.33333 4.66661H8.66666V8.66661H7.33333V4.66661Z" fill="#808080"/>
</svg>
