<svg width="17" height="16" viewBox="0 0 17 16" fill="none" xmlns="http://www.w3.org/2000/svg">
<path d="M7.92559 12.2C6.93273 12.2 5.96216 11.9056 5.13663 11.354C4.31109 10.8024 3.66767 10.0184 3.28771 9.10111C2.90776 8.18382 2.80835 7.17447 3.00205 6.20068C3.19574 5.2269 3.67385 4.33242 4.37591 3.63036C5.07797 2.9283 5.97245 2.45019 6.94624 2.25649C7.92002 2.0628 8.92937 2.16221 9.84666 2.54216C10.7639 2.92211 11.548 3.56554 12.0996 4.39107C12.6512 5.21661 12.9456 6.18717 12.9456 7.18004C12.9456 7.83927 12.8157 8.49205 12.5635 9.10111C12.3112 9.71016 11.9414 10.2636 11.4753 10.7297C11.0091 11.1959 10.4557 11.5656 9.84666 11.8179C9.23761 12.0702 8.58482 12.2 7.92559 12.2ZM7.92559 3.1667C7.13446 3.1667 6.3611 3.4013 5.70331 3.84082C5.04551 4.28035 4.53282 4.90506 4.23007 5.63597C3.92732 6.36687 3.84811 7.17114 4.00245 7.94706C4.15679 8.72299 4.53775 9.43572 5.09716 9.99513C5.65657 10.5545 6.3693 10.9355 7.14523 11.0898C7.92115 11.2442 8.72542 11.165 9.45632 10.8622C10.1872 10.5595 10.8119 10.0468 11.2515 9.38898C11.691 8.73119 11.9256 7.95783 11.9256 7.1667C11.9256 6.10584 11.5042 5.08842 10.754 4.33828C10.0039 3.58813 8.98645 3.1667 7.92559 3.1667Z" fill="#808080"/>
<path d="M14.0789 13.8334C14.0132 13.8337 13.9481 13.8209 13.8875 13.7957C13.8268 13.7705 13.7717 13.7335 13.7256 13.6867L10.9723 10.9334C10.8839 10.8386 10.8359 10.7132 10.8381 10.5837C10.8404 10.4542 10.8929 10.3306 10.9845 10.239C11.0761 10.1474 11.1997 10.0949 11.3292 10.0926C11.4588 10.0903 11.5841 10.1384 11.6789 10.2267L14.4323 12.9801C14.5259 13.0738 14.5785 13.2009 14.5785 13.3334C14.5785 13.4659 14.5259 13.593 14.4323 13.6867C14.3861 13.7335 14.3311 13.7705 14.2704 13.7957C14.2097 13.8209 14.1446 13.8337 14.0789 13.8334Z" fill="#808080"/>
</svg>
