<svg width="18" height="17" viewBox="0 0 18 17" fill="none" xmlns="http://www.w3.org/2000/svg">
<path d="M1.24292 6.02694C1.30298 5.82893 1.41872 5.65411 1.57525 5.52495C1.73179 5.3958 1.92196 5.31822 2.12131 5.30219L6.44493 4.91415C6.47107 4.91148 6.49604 4.90151 6.51716 4.88529C6.53829 4.86908 6.55478 4.84722 6.5649 4.82205L8.25407 0.642693C8.33229 0.452036 8.46278 0.289463 8.6293 0.175193C8.79582 0.0609235 8.99102 0 9.19063 0C9.39024 0 9.58544 0.0609235 9.75196 0.175193C9.91848 0.289463 10.049 0.452036 10.1272 0.642693L11.8164 4.82205C11.8265 4.84722 11.843 4.86908 11.8641 4.88529C11.8852 4.90151 11.9102 4.91148 11.9363 4.91415L16.2599 5.30219C16.4593 5.31822 16.6495 5.3958 16.806 5.52495C16.9625 5.65411 17.0783 5.82893 17.1383 6.02694C17.2019 6.22522 17.2075 6.43863 17.1543 6.64019C17.1011 6.84176 16.9916 7.02242 16.8395 7.15935L13.5593 10.13C13.5392 10.1486 13.5243 10.1724 13.5161 10.1989C13.5079 10.2255 13.5068 10.2538 13.5128 10.281L14.4988 14.6982C14.5448 14.9016 14.5316 15.1145 14.4611 15.3102C14.3906 15.5058 14.2658 15.6753 14.1025 15.7974C13.9417 15.9205 13.7491 15.9908 13.5495 15.9992C13.3499 16.0075 13.1525 15.9535 12.9827 15.8442L9.26625 13.5039C9.24441 13.4898 9.21923 13.4824 9.19354 13.4824C9.16785 13.4824 9.14267 13.4898 9.12082 13.5039L5.40438 15.8442C5.23285 15.9532 5.03405 16.0071 4.83308 15.9989C4.6321 15.9908 4.43796 15.921 4.27515 15.7984C4.11233 15.6758 3.98815 15.5059 3.91826 15.3101C3.84837 15.1143 3.83592 14.9013 3.88246 14.6982L4.86556 10.2795C4.87156 10.2523 4.8704 10.224 4.86222 10.1974C4.85403 10.1708 4.83911 10.1471 4.81903 10.1285L1.53887 7.15784C1.38759 7.02067 1.27877 6.84011 1.2261 6.63887C1.17344 6.43764 1.17929 6.22473 1.24292 6.02694ZM2.1155 6.47386L5.39565 9.44456C5.53542 9.57082 5.63935 9.73428 5.69624 9.91734C5.75313 10.1004 5.76083 10.2961 5.71851 10.4834L4.73541 14.902C4.72814 14.9317 4.72974 14.963 4.74 14.9917C4.75026 15.0204 4.76869 15.0452 4.79285 15.0628C4.81472 15.081 4.8416 15.0915 4.86958 15.0927C4.89757 15.0939 4.9252 15.0858 4.94846 15.0696L8.6649 12.7293C8.82335 12.6293 9.00521 12.5764 9.19063 12.5764C9.37605 12.5764 9.55791 12.6293 9.71636 12.7293L13.4328 15.0696C13.4561 15.0858 13.4837 15.0939 13.5117 15.0927C13.5397 15.0915 13.5665 15.081 13.5884 15.0628C13.6126 15.0452 13.631 15.0204 13.6413 14.9917C13.6515 14.963 13.6531 14.9317 13.6459 14.902L12.6628 10.4834C12.6204 10.2961 12.6281 10.1004 12.685 9.91734C12.7419 9.73428 12.8458 9.57082 12.9856 9.44456L16.2658 6.47386C16.2882 6.45405 16.3043 6.42764 16.312 6.39812C16.3196 6.3686 16.3185 6.33736 16.3087 6.30853C16.3013 6.27982 16.2854 6.25427 16.2632 6.23555C16.241 6.21683 16.2136 6.20591 16.185 6.20435L11.8607 5.81631C11.6756 5.79993 11.4983 5.73127 11.3481 5.61775C11.1979 5.50424 11.0804 5.3502 11.0085 5.17234L9.31933 0.992986C9.30759 0.967046 9.28898 0.945114 9.26567 0.929751C9.24237 0.914388 9.21533 0.90623 9.18772 0.90623C9.16012 0.90623 9.13308 0.914388 9.10977 0.929751C9.08647 0.945114 9.06785 0.967046 9.05611 0.992986L7.37276 5.17234C7.30107 5.34978 7.18408 5.50353 7.03441 5.61701C6.88474 5.73049 6.70807 5.7994 6.52346 5.81631L2.19912 6.20435C2.17055 6.20591 2.14319 6.21683 2.12098 6.23555C2.09877 6.25427 2.08285 6.27982 2.0755 6.30853C2.06535 6.33706 2.06374 6.36812 2.07088 6.39762C2.07801 6.42712 2.09357 6.45369 2.1155 6.47386Z" fill="black"/>
</svg>
