<svg width="16" height="16" viewBox="0 0 16 16" fill="none" xmlns="http://www.w3.org/2000/svg">
<path d="M7.194 2.10105C7.26833 1.95049 7.38331 1.82373 7.52592 1.73509C7.66853 1.64646 7.83309 1.59949 8.001 1.59949C8.16891 1.59949 8.33347 1.64646 8.47608 1.73509C8.61869 1.82373 8.73366 1.95049 8.808 2.10105L10.329 5.18305L13.73 5.67805C13.8963 5.70203 14.0525 5.77207 14.181 5.88023C14.3096 5.98839 14.4052 6.13037 14.4573 6.29009C14.5093 6.44981 14.5156 6.62091 14.4754 6.78402C14.4353 6.94713 14.3502 7.09575 14.23 7.21305L11.768 9.61205L12.349 12.9991C12.3775 13.1646 12.359 13.3348 12.2958 13.4904C12.2325 13.6461 12.127 13.7809 11.9911 13.8796C11.8552 13.9784 11.6944 14.0371 11.5268 14.0492C11.3593 14.0613 11.1917 14.0263 11.043 13.9481L8.001 12.3481L4.959 13.9481C4.81033 14.0263 4.64274 14.0613 4.47519 14.0492C4.30765 14.0371 4.14683 13.9784 4.01093 13.8796C3.87504 13.7809 3.76949 13.6461 3.70623 13.4904C3.64298 13.3348 3.62454 13.1646 3.653 12.9991L4.233 9.61205L1.773 7.21205C1.65307 7.09477 1.5683 6.94631 1.52826 6.78342C1.48822 6.62053 1.49449 6.44969 1.54638 6.29017C1.59827 6.13066 1.69371 5.98882 1.82192 5.88066C1.95013 5.7725 2.10602 5.70233 2.272 5.67805L5.672 5.18305L7.194 2.10105ZM8 2.72605L6.546 5.67305C6.48144 5.80376 6.38609 5.91683 6.26817 6.00253C6.15024 6.08823 6.01325 6.144 5.869 6.16505L2.616 6.63805L4.97 8.93205C5.0744 9.03403 5.15244 9.15986 5.19738 9.2987C5.24233 9.43755 5.25284 9.58524 5.228 9.72905L4.673 12.9691L7.583 11.4391C7.71208 11.3713 7.8557 11.3358 8.0015 11.3358C8.1473 11.3358 8.29092 11.3713 8.42 11.4391L11.33 12.9691L10.774 9.72905C10.7492 9.58524 10.7597 9.43755 10.8046 9.2987C10.8496 9.15986 10.9276 9.03403 11.032 8.93205L13.386 6.63805L10.133 6.16505C9.98875 6.144 9.85176 6.08823 9.73383 6.00253C9.61591 5.91683 9.52056 5.80376 9.456 5.67305L8 2.72605Z" fill="#808080"/>
</svg>
