<svg width="16" height="16" viewBox="0 0 16 16" fill="none" xmlns="http://www.w3.org/2000/svg">
<g clip-path="url(#clip0_133_14)">
<path d="M3.217 6.20106C3.17399 6.13186 3.10963 6.07856 3.03363 6.0492C2.95763 6.01984 2.87414 6.01603 2.79579 6.03835C2.71743 6.06066 2.64848 6.10788 2.59935 6.17288C2.55022 6.23787 2.5236 6.31709 2.5235 6.39856V9.62506C2.5235 9.72452 2.56301 9.8199 2.63333 9.89022C2.70366 9.96055 2.79904 10.0001 2.8985 10.0001C2.99795 10.0001 3.09334 9.96055 3.16366 9.89022C3.23399 9.8199 3.2735 9.72452 3.2735 9.62506V7.93506C3.2735 7.87156 3.356 7.84856 3.389 7.90206L4.5795 9.82256C4.62241 9.89199 4.6868 9.94553 4.76289 9.97504C4.83899 10.0046 4.92264 10.0084 5.00114 9.9861C5.07964 9.96376 5.14872 9.91642 5.19787 9.85126C5.24702 9.7861 5.27358 9.70668 5.2735 9.62506V6.39856C5.2735 6.2991 5.23399 6.20372 5.16366 6.13339C5.09334 6.06307 4.99795 6.02356 4.8985 6.02356C4.79904 6.02356 4.70366 6.06307 4.63333 6.13339C4.56301 6.20372 4.5235 6.2991 4.5235 6.39856V8.08856C4.5235 8.15156 4.441 8.17506 4.408 8.12156L3.217 6.20106ZM6.385 6.04356C6.28554 6.04356 6.19016 6.08307 6.11983 6.15339C6.04951 6.22372 6.01 6.3191 6.01 6.41856V9.62206C6.01 9.82956 6.1785 9.99706 6.385 9.99706H8.2015C8.30095 9.99706 8.39634 9.95755 8.46666 9.88722C8.53699 9.8169 8.5765 9.72152 8.5765 9.62206C8.5765 9.5226 8.53699 9.42722 8.46666 9.35689C8.39634 9.28657 8.30095 9.24706 8.2015 9.24706H6.823C6.80642 9.24706 6.79053 9.24047 6.7788 9.22875C6.76708 9.21703 6.7605 9.20114 6.7605 9.18456V8.51956C6.7605 8.48506 6.7885 8.45706 6.823 8.45706H8.1775C8.27695 8.45706 8.37234 8.41755 8.44266 8.34722C8.51299 8.2769 8.5525 8.18152 8.5525 8.08206C8.5525 7.9826 8.51299 7.88722 8.44266 7.81689C8.37234 7.74657 8.27695 7.70706 8.1775 7.70706H6.8225C6.80601 7.70693 6.79024 7.70028 6.77863 7.68858C6.76701 7.67687 6.7605 7.66105 6.7605 7.64456V6.85606C6.7605 6.82106 6.7885 6.79356 6.823 6.79356H8.2015C8.30095 6.79356 8.39634 6.75405 8.46666 6.68372C8.53699 6.6134 8.5765 6.51802 8.5765 6.41856C8.5765 6.3191 8.53699 6.22372 8.46666 6.15339C8.39634 6.08307 8.30095 6.04356 8.2015 6.04356H6.385ZM9.838 6.32906C9.81128 6.23325 9.74759 6.15198 9.66095 6.10313C9.57431 6.05427 9.47181 6.04184 9.376 6.06856C9.28019 6.09528 9.19892 6.15897 9.15006 6.24561C9.10121 6.33225 9.08878 6.43475 9.1155 6.53056L9.9905 9.67056C10.0124 9.74902 10.0592 9.81822 10.1239 9.8677C10.1886 9.91718 10.2677 9.94425 10.3491 9.94481C10.4306 9.94538 10.51 9.91941 10.5754 9.87083C10.6407 9.82225 10.6885 9.75371 10.7115 9.67556L11.2145 7.94756C11.232 7.88756 11.316 7.88756 11.3345 7.94706L11.8595 9.67906C11.883 9.75741 11.9315 9.82592 11.9976 9.87415C12.0636 9.92238 12.1436 9.94769 12.2254 9.94622C12.3072 9.94474 12.3863 9.91657 12.4506 9.86599C12.5148 9.81541 12.5608 9.7452 12.5815 9.66606L13.4095 6.52556C13.4328 6.43013 13.4177 6.32939 13.3675 6.24497C13.3172 6.16055 13.2359 6.09921 13.1409 6.07413C13.046 6.04904 12.945 6.06222 12.8596 6.11083C12.7743 6.15943 12.7114 6.23959 12.6845 6.33406L12.2495 7.98256C12.2335 8.04356 12.1475 8.04506 12.1295 7.98456L11.6245 6.32106C11.6011 6.24369 11.5533 6.17596 11.4882 6.12797C11.4232 6.07998 11.3443 6.05429 11.2635 6.05474C11.1827 6.05519 11.1041 6.08175 11.0396 6.13047C10.9751 6.17918 10.9281 6.24743 10.9055 6.32506L10.4205 7.99056C10.403 8.05106 10.3175 8.05056 10.3005 7.99006L9.838 6.32906Z" fill="#808080"/>
<path d="M3 0.5C2.6717 0.5 2.34661 0.564664 2.04329 0.690301C1.73998 0.815938 1.46438 1.00009 1.23223 1.23223C0.763392 1.70107 0.5 2.33696 0.5 3V13C0.5 13.663 0.763392 14.2989 1.23223 14.7678C1.46438 14.9999 1.73998 15.1841 2.04329 15.3097C2.34661 15.4353 2.6717 15.5 3 15.5H13C13.663 15.5 14.2989 15.2366 14.7678 14.7678C15.2366 14.2989 15.5 13.663 15.5 13V3C15.5 2.6717 15.4353 2.34661 15.3097 2.04329C15.1841 1.73998 14.9999 1.46438 14.7678 1.23223C14.5356 1.00009 14.26 0.815938 13.9567 0.690301C13.6534 0.564664 13.3283 0.5 13 0.5H3ZM1.5 3C1.5 2.60218 1.65804 2.22064 1.93934 1.93934C2.22064 1.65804 2.60218 1.5 3 1.5H13C13.3978 1.5 13.7794 1.65804 14.0607 1.93934C14.342 2.22064 14.5 2.60218 14.5 3V13C14.5 13.3978 14.342 13.7794 14.0607 14.0607C13.7794 14.342 13.3978 14.5 13 14.5H3C2.60218 14.5 2.22064 14.342 1.93934 14.0607C1.65804 13.7794 1.5 13.3978 1.5 13V3Z" fill="#808080"/>
</g>
<defs>
<clipPath id="clip0_133_14">
<rect width="16" height="16" fill="white"/>
</clipPath>
</defs>
</svg>
