<svg width="20" height="21" viewBox="0 0 20 21" fill="none" xmlns="http://www.w3.org/2000/svg">
<path d="M8.21428 4.84323H11.7857C11.7857 4.36963 11.5976 3.91542 11.2627 3.58054C10.9278 3.24565 10.4736 3.05751 10 3.05751C9.52639 3.05751 9.07219 3.24565 8.73731 3.58054C8.40242 3.91542 8.21428 4.36963 8.21428 4.84323ZM7.14285 4.84323C7.14285 4.08547 7.44387 3.35874 7.97969 2.82292C8.51551 2.2871 9.24223 1.98608 10 1.98608C10.7578 1.98608 11.4845 2.2871 12.0203 2.82292C12.5561 3.35874 12.8571 4.08547 12.8571 4.84323H17.3214C17.4635 4.84323 17.5998 4.89967 17.7002 5.00013C17.8007 5.1006 17.8571 5.23686 17.8571 5.37894C17.8571 5.52102 17.8007 5.65728 17.7002 5.75775C17.5998 5.85821 17.4635 5.91466 17.3214 5.91466H16.3857L15.5164 16.3454C15.4532 17.1042 15.1071 17.8115 14.5468 18.3271C13.9865 18.8427 13.2529 19.1289 12.4914 19.1289H7.50857C6.74713 19.1289 6.01352 18.8427 5.45321 18.3271C4.8929 17.8115 4.54681 17.1042 4.48357 16.3454L3.61428 5.91466H2.67857C2.53649 5.91466 2.40023 5.85821 2.29976 5.75775C2.19929 5.65728 2.14285 5.52102 2.14285 5.37894C2.14285 5.23686 2.19929 5.1006 2.29976 5.00013C2.40023 4.89967 2.53649 4.84323 2.67857 4.84323H7.14285ZM5.55142 16.2561C5.59227 16.7471 5.81616 17.2048 6.17867 17.5385C6.54119 17.8722 7.01586 18.0574 7.50857 18.0575H12.4914C12.9841 18.0574 13.4588 17.8722 13.8213 17.5385C14.1838 17.2048 14.4077 16.7471 14.4486 16.2561L15.3114 5.91466H4.68928L5.55142 16.2561ZM8.39285 8.41466C8.53493 8.41466 8.67119 8.4711 8.77166 8.57156C8.87213 8.67203 8.92857 8.80829 8.92857 8.95037V15.0218C8.92857 15.1639 8.87213 15.3001 8.77166 15.4006C8.67119 15.5011 8.53493 15.5575 8.39285 15.5575C8.25077 15.5575 8.11451 15.5011 8.01405 15.4006C7.91358 15.3001 7.85714 15.1639 7.85714 15.0218V8.95037C7.85714 8.80829 7.91358 8.67203 8.01405 8.57156C8.11451 8.4711 8.25077 8.41466 8.39285 8.41466ZM12.1429 8.95037C12.1429 8.80829 12.0864 8.67203 11.9859 8.57156C11.8855 8.4711 11.7492 8.41466 11.6071 8.41466C11.4651 8.41466 11.3288 8.4711 11.2283 8.57156C11.1279 8.67203 11.0714 8.80829 11.0714 8.95037V15.0218C11.0714 15.1639 11.1279 15.3001 11.2283 15.4006C11.3288 15.5011 11.4651 15.5575 11.6071 15.5575C11.7492 15.5575 11.8855 15.5011 11.9859 15.4006C12.0864 15.3001 12.1429 15.1639 12.1429 15.0218V8.95037Z" fill="black"/>
</svg>
