<svg width="20" height="21" viewBox="0 0 20 21" fill="none" xmlns="http://www.w3.org/2000/svg">
<path fill-rule="evenodd" clip-rule="evenodd" d="M17.8792 5.07089C17.9583 5.19106 17.9936 5.33488 17.979 5.47805C17.9645 5.62122 17.9009 5.75497 17.7992 5.85672L10.1383 13.5167C10.06 13.595 9.96218 13.6511 9.855 13.6792L6.66417 14.5126C6.55869 14.5401 6.44786 14.5395 6.34266 14.5109C6.23747 14.4824 6.14157 14.4268 6.0645 14.3497C5.98742 14.2727 5.93184 14.1768 5.90328 14.0716C5.87472 13.9664 5.87416 13.8555 5.90167 13.7501L6.735 10.5601C6.75933 10.4643 6.80522 10.3754 6.86917 10.3001L14.5583 2.61589C14.6755 2.49885 14.8344 2.43311 15 2.43311C15.1656 2.43311 15.3245 2.49885 15.4417 2.61589L17.7992 4.97256C17.8291 5.00256 17.8559 5.0355 17.8792 5.07089ZM16.4733 5.41422L15 3.94172L7.90167 11.0401L7.38084 13.0342L9.375 12.5134L16.4733 5.41422Z" fill="black"/>
<path d="M16.3675 14.8576C16.5953 12.9109 16.668 10.9492 16.585 8.99094C16.5832 8.9448 16.5909 8.89879 16.6077 8.85578C16.6245 8.81276 16.6499 8.77367 16.6825 8.74094L17.5025 7.92094C17.5249 7.8984 17.5533 7.88282 17.5844 7.87606C17.6155 7.8693 17.6478 7.87165 17.6775 7.88282C17.7073 7.894 17.7332 7.91353 17.7521 7.93907C17.771 7.9646 17.7821 7.99506 17.7842 8.02677C17.9385 10.3528 17.8799 12.6881 17.6092 15.0034C17.4125 16.6884 16.0592 18.0093 14.3817 18.1968C11.4695 18.5193 8.53055 18.5193 5.61834 18.1968C3.94167 18.0093 2.58751 16.6884 2.39084 15.0034C2.04534 12.0496 2.04534 9.06559 2.39084 6.11177C2.58751 4.42677 3.94084 3.10594 5.61834 2.91844C7.82865 2.67334 10.0556 2.61396 12.2758 2.74094C12.3076 2.74322 12.3381 2.75456 12.3636 2.77361C12.3891 2.79267 12.4087 2.81864 12.4199 2.84845C12.4311 2.87827 12.4335 2.91067 12.4269 2.94183C12.4203 2.97299 12.4049 3.0016 12.3825 3.02427L11.555 3.85094C11.5226 3.88323 11.4839 3.90854 11.4413 3.92531C11.3988 3.94208 11.3532 3.94995 11.3075 3.94844C9.4548 3.88546 7.59997 3.95648 5.75751 4.16094C5.21912 4.22053 4.71655 4.45987 4.33097 4.84031C3.94539 5.22075 3.69932 5.72007 3.63251 6.2576C3.29838 9.11453 3.29838 12.0007 3.63251 14.8576C3.69932 15.3951 3.94539 15.8945 4.33097 16.2749C4.71655 16.6553 5.21912 16.8947 5.75751 16.9543C8.55334 17.2668 11.4467 17.2668 14.2433 16.9543C14.7817 16.8947 15.2843 16.6553 15.6699 16.2749C16.0555 15.8945 16.3007 15.3951 16.3675 14.8576Z" fill="black"/>
</svg>
