<svg width="16" height="16" viewBox="0 0 16 16" fill="none" xmlns="http://www.w3.org/2000/svg">
<g clip-path="url(#clip0_133_10)">
<path d="M13.7031 6.46875L14.8125 4.0625L12.1719 3.82812L11.9375 1.1875L9.53125 2.29688L8 0.132812L6.46875 2.29688L4.0625 1.1875L3.82812 3.82812L1.1875 4.0625L2.29688 6.46875L0.132812 8L2.29688 9.53125L1.1875 11.9375L3.82812 12.1719L4.0625 14.8125L6.46875 13.7031L8 15.8672L9.53125 13.7031L11.9375 14.8125L12.1719 12.1719L14.8125 11.9375L13.7031 9.53125L15.8672 8L13.7031 6.46875ZM13.3125 4.9375L12.4453 6.8125L14.1328 8L12.4453 9.1875L13.3125 11.0625L11.25 11.25L11.0625 13.3125L9.1875 12.4453L8 14.1328L6.8125 12.4453L4.9375 13.3125L4.75 11.25L2.6875 11.0625L3.55469 9.1875L1.86719 8L3.55469 6.8125L2.6875 4.9375L4.75 4.75L4.9375 2.6875L6.8125 3.55469L8 1.86719L9.1875 3.55469L11.0625 2.6875L11.25 4.75L13.3125 4.9375Z" fill="#808080"/>
<path d="M8.7872 4.96861L8.62979 9.12347H7.56518L7.40777 4.96861H8.7872ZM7.37049 10.4118C7.37049 10.2267 7.43676 10.0707 7.56932 9.94368C7.70188 9.81664 7.87724 9.75313 8.09541 9.75313C8.31082 9.75313 8.48342 9.81664 8.61322 9.94368C8.74578 10.0707 8.81205 10.2267 8.81205 10.4118C8.81205 10.5996 8.74578 10.757 8.61322 10.884C8.48342 11.0083 8.31082 11.0704 8.09541 11.0704C7.87724 11.0704 7.70188 11.0083 7.56932 10.884C7.43676 10.757 7.37049 10.5996 7.37049 10.4118Z" fill="#808080"/>
</g>
<defs>
<clipPath id="clip0_133_10">
<rect width="16" height="16" fill="white" transform="matrix(1 0 0 -1 0 16)"/>
</clipPath>
</defs>
</svg>
